# xmcd
#
# Track frame offsets:
#	150
#	16939
#	36004
#	57413
#	78022
#	100288
#	122304
#	141055
#	157706
#	179467
#
# Disc length: 2674 seconds
#
# Revision: 1
# Processed by: cddbd v1.5.2PL0 Copyright (c) Steve Scherf et al.
# Submitted via: audiograbber 1.83.01
#
DISCID=6c0a700a
DTITLE=Виктор Романов - Реквием
DYEAR=1900
DGENRE=
TTITLE0=Прости и прощай
TTITLE1=Свечи
TTITLE2=Ты меня любишь
TTITLE3=Как быть
TTITLE4=Вина
TTITLE5=Реквием (пожар УВД)
TTITLE6=Деревня
TTITLE7=Поле
TTITLE8=Друзья
TTITLE9=Птица
EXTD=
EXTT0=
EXTT1=
EXTT2=
EXTT3=
EXTT4=
EXTT5=
EXTT6=
EXTT7=
EXTT8=
EXTT9=
PLAYORDER=
